<?xml version="1.0" encoding="utf-8"?>
<!-- Generator: Adobe Illustrator 27.2.0, SVG Export Plug-In . SVG Version: 6.00 Build 0)  -->
<svg version="1.1" id="Camada_1" xmlns="http://www.w3.org/2000/svg" xmlns:xlink="http://www.w3.org/1999/xlink" x="0px" y="0px"
	 viewBox="0 0 672.53 456.81" style="enable-background:new 0 0 672.53 456.81;" xml:space="preserve">
<style type="text/css">
	.st0{fill:#548C10;}
	.st1{fill:#77D303;}
	.st2{fill:#436717;}
</style>
<path class="st0" d="M611.01,136.63c0,155.04-125.69,280.72-280.72,280.72c-155.04,0-280.72-125.68-280.72-280.72
	c0-34.16,6.1-66.89,17.28-97.17c19.23,52.1,53.46,96.93,97.46,129.23c22.75,69.93,88.47,120.48,165.99,120.48
	s143.23-50.55,165.98-120.48c44-32.3,78.24-77.14,97.46-129.23C604.91,69.74,611.01,102.47,611.01,136.63z"/>
<path class="st1" d="M496.27,168.7c-22.75,69.93-88.46,120.48-165.98,120.48S187.06,238.63,164.31,168.7
	c46.49,34.15,103.88,54.31,165.99,54.31C392.39,223.01,449.78,202.84,496.27,168.7z"/>
<path class="st2" d="M504.8,114.67c0,18.86-2.99,37.01-8.52,54.03c-46.49,34.15-103.88,54.31-165.98,54.31
	c-62.1,0-119.5-20.17-165.99-54.31c-5.53-17.01-8.52-35.17-8.52-54.03c0-21.23,3.79-41.58,10.74-60.4
	c24.58,66.6,88.63,114.1,163.77,114.1c75.14,0,139.19-47.49,163.77-114.1C501.01,73.09,504.8,93.44,504.8,114.67z"/>
</svg>
